# xmcd
#
# Track frame offsets:
#	150
#	12767
#	26820
#	39829
#	53763
#	66099
#	79735
#	91249
#	105687
#	121539
#	134877
#	149462
#
# Disc length: 2167 seconds
#
# Revision: 0
# Processed by: cddbd v1.5.2PL0 Copyright (c) Steve Scherf et al.
# Submitted via: EasyCDDAExtractor 16.0.6.1
#
DISCID=9a08750c
DTITLE=Καζαντζίδης Στέλιος - Τραγουδήστε μαζί μου-Σ. Καζαντζίδης
DYEAR=1965
DGENRE=Λαϊκή
TTITLE0=Καζαντζίδης Στέλιος-Μαρινέλλα - Παράπονα και κλάματα [Θ. Δερβενιώτη-Κ.
TTITLE0=Βίρβου]
TTITLE1=Καζαντζίδης Στέλιος - Μ' άφησες πρώτα να σ' αγαπήσω [Β. Χαλκίδη-Στ. Βα
TTITLE1=ρτάνη]
TTITLE2=Καζαντζίδης Στέλιος-Μαρινέλλα - Μπροστά στο πλουσιόσπιτο [Χρ. Κολοκοτρ
TTITLE2=ώνη]
TTITLE3=Καζαντζίδης Στέλιος-Μαρινέλλα - Σε ξένη χώρα μόνος [Β. Χαλκίδη-Στ. Βαρ
TTITLE3=τάνη]
TTITLE4=Καζαντζίδης Στέλιος - Στης κοινωνίας τα σκαλοπάτια [Χρ. Κολοκοτρώνη]
TTITLE5=Καζαντζίδης Στέλιος - Σαν μού φύγεις και σε χάνω [Κ. Βίρβου-Θ. Δερβενι
TTITLE5=ώτη]
TTITLE6=Καζαντζίδης Στέλιος-Μαρινέλλα - Στην καλύβα την δική μου [Γ. Μητσάκη]
TTITLE7=Καζαντζίδης Στέλιος-Μαρινέλλα - Γεννήθηκα για να πονώ [Μπ. Μπακάλη]
TTITLE8=Καζαντζίδης Στέλιος-Μαρινέλλα - Αν μού φύγεις τώρα [Σ. Καζαντζίδη-Στ. 
TTITLE8=Βαρτάνη]
TTITLE9=Καζαντζίδης Στέλιος-Μαρινέλλα - Σ' έχω ξεχάσει πια [Κ. Βίρβου]
TTITLE10=Καζαντζίδης Στέλιος-Μαρινέλλα - Αχ πώς γέρασα [Κ. Σταματάκη]
TTITLE11=Καζαντζίδης Στέλιος-Μαρινέλλα - Κάθε άσπρη τρίχα πού 'χω στα μαλλιά μ
TTITLE11=ου [Κ.Βίρβου-Θ.Δερβενιώτη]
EXTD=
EXTT0=
EXTT1=
EXTT2=
EXTT3=
EXTT4=
EXTT5=
EXTT6=
EXTT7=
EXTT8=
EXTT9=
EXTT10=
EXTT11=
PLAYORDER=
